<svg xmlns="http://www.w3.org/2000/svg" xmlns:xlink="http://www.w3.org/1999/xlink" width="89.999" height="90" viewBox="0 0 89.999 90">
  <defs>
    <style>
      .cls-1 {
        fill: none;
      }

      .cls-2 {
        clip-path: url(#clip-path);
      }

      .cls-3 {
        fill: #004cff;
      }
    </style>
    <clipPath id="clip-path">
      <path id="vectorMask" class="cls-1" d="M585,3945h90v90H585Z"/>
    </clipPath>
  </defs>
  <g id="Mask_Group_26" data-name="Mask Group 26" class="cls-2" transform="translate(-585 -3945)">
    <g id="Mask_Group_26-2" data-name="Mask Group 26">
      <g id="money">
        <g id="Group_149" data-name="Group 149">
          <g id="Group_148" data-name="Group 148">
            <path id="Path_83" data-name="Path 83" class="cls-3" d="M599.954,4024.968a1.757,1.757,0,1,0,.515,1.243A1.769,1.769,0,0,0,599.954,4024.968Z"/>
          </g>
        </g>
        <g id="Group_151" data-name="Group 151">
          <g id="Group_150" data-name="Group 150">
            <path id="Path_84" data-name="Path 84" class="cls-3" d="M667.532,3977.157a1.751,1.751,0,1,0,.517,1.243A1.766,1.766,0,0,0,667.532,3977.157Z"/>
          </g>
        </g>
        <g id="Group_153" data-name="Group 153">
          <g id="Group_152" data-name="Group 152">
            <path id="Path_85" data-name="Path 85" class="cls-3" d="M673.24,4035H620.177a8.851,8.851,0,0,1-5.821-2.182l-2.09-1.823a5.266,5.266,0,0,1-5.118,4.005H590.274a5.279,5.279,0,0,1-5.273-5.274v-28.651a5.279,5.279,0,0,1,5.273-5.274h16.875a5.277,5.277,0,0,1,4.352,2.3l7.471-7.47-8.636-32.229a1.761,1.761,0,0,1,1.244-2.153l16.661-4.465v-5.027A1.76,1.76,0,0,1,630,3945l43.241,0a1.743,1.743,0,0,1,1.242.515,1.766,1.766,0,0,1,.515,1.242v86.485A1.76,1.76,0,0,1,673.24,4035Zm-14.3-8.437h0a5.95,5.95,0,0,1,0,4.921h12.544v-82.969l-39.725,0v49.217h3.434v-34.992a1.76,1.76,0,0,1,1.758-1.758,4.738,4.738,0,0,0,4.732-4.733,1.759,1.759,0,0,1,1.758-1.757H659.8a1.759,1.759,0,0,1,1.758,1.757,4.738,4.738,0,0,0,4.732,4.733,1.76,1.76,0,0,1,1.758,1.758v7.035a1.758,1.758,0,0,1-3.516,0v-5.465a8.27,8.27,0,0,1-6.3-6.3H645.008a8.272,8.272,0,0,1-6.3,6.3v33.423h9.608a8.412,8.412,0,1,1,6.61,0h2.825a5.983,5.983,0,0,1,5.977,5.977,5.9,5.9,0,0,1-.533,2.461h.057a5.963,5.963,0,0,1,1.282.141v-20a1.758,1.758,0,1,1,3.516,0v22.278a5.921,5.921,0,0,1,1.18,3.561,5.992,5.992,0,0,1-4.395,5.762,5.907,5.907,0,0,1,.634,2.675,5.983,5.983,0,0,1-5.977,5.977h-.552ZM620.1,3994.48h0l-7.674,7.675v24.312l4.245,3.7a5.346,5.346,0,0,0,3.511,1.315H653.5a2.46,2.46,0,0,0,0-4.92H640.041a1.758,1.758,0,1,1,0-3.516H659.49a2.461,2.461,0,0,0,0-4.923H640.041a1.757,1.757,0,1,1,0-3.515h23.211a2.461,2.461,0,0,0,0-4.922H640.041a1.758,1.758,0,0,1,0-3.516H657.75a2.461,2.461,0,1,0,0-4.921l-34.559,0a1.758,1.758,0,0,1-1.7-1.323l-1.392-5.446Zm-29.822,4.837a1.76,1.76,0,0,0-1.758,1.758v28.652a1.759,1.759,0,0,0,1.758,1.757h16.874a1.759,1.759,0,0,0,1.758-1.757v-28.652a1.759,1.759,0,0,0-1.757-1.758h-6.679v20.249a1.758,1.758,0,0,1-3.516,0v-20.249Zm37.967-43.891h0l-14.055,3.766L622.443,3990a1.742,1.742,0,0,1,.295.617l1.818,7.113h3.528l-6.852-25.372a1.774,1.774,0,0,1,.173-1.336,1.754,1.754,0,0,1,1.068-.821,4.738,4.738,0,0,0,3.348-5.8,1.757,1.757,0,0,1,1.242-2.153l1.178-.315v-6.514ZM651.62,3985.1a4.9,4.9,0,1,0,4.9,4.9A4.905,4.905,0,0,0,651.62,3985.1ZM628.241,3970a8.237,8.237,0,0,1-3.206,2.961l3.206,11.871V3970Z"/>
          </g>
        </g>
      </g>
    </g>
  </g>
</svg>
