<svg xmlns="http://www.w3.org/2000/svg" xmlns:xlink="http://www.w3.org/1999/xlink" width="90" height="90" viewBox="0 0 90 90">
  <defs>
    <style>
      .cls-1 {
        fill: none;
      }

      .cls-2 {
        clip-path: url(#clip-path);
      }

      .cls-3 {
        fill: #004cff;
      }
    </style>
    <clipPath id="clip-path">
      <path id="vectorMask" class="cls-1" d="M945,3945h90v90H945Z"/>
    </clipPath>
  </defs>
  <g id="Mask_Group_27" data-name="Mask Group 27" class="cls-2" transform="translate(-944.999 -3945)">
    <g id="Mask_Group_27-2" data-name="Mask Group 27">
      <g id="support">
        <g id="Group_155" data-name="Group 155">
          <g id="Group_154" data-name="Group 154">
            <circle id="Path_86" data-name="Path 86" class="cls-3" cx="1.76" cy="1.76" r="1.76" transform="translate(1007.58 4014.61)"/>
          </g>
        </g>
        <g id="Group_157" data-name="Group 157">
          <g id="Group_156" data-name="Group 156">
            <path id="Path_87" data-name="Path 87" class="cls-3" d="M1028.672,4035H951.328a1.76,1.76,0,0,1-1.758-1.758c0-10.851,7.051-21.077,16.766-24.317l8.354-2.785,3-5.995c-.293-.3-.546-.572-.775-.833a19.1,19.1,0,0,1-2.948-4.566h-1.544a5.28,5.28,0,0,1-5.274-5.274v-2.06a5.287,5.287,0,0,1-3.515-4.971v-11.074a26.367,26.367,0,1,1,52.734,0v11.074a5.279,5.279,0,0,1-5.274,5.273h-3.2l-.374,2.242a19.188,19.188,0,0,1-5.211,10.185l3,6,8.355,2.785c9.715,3.24,16.766,13.466,16.766,24.317A1.76,1.76,0,0,1,1028.672,4035Zm-53.825-25.206h0l-7.4,2.466c-7.715,2.573-13.592,10.479-14.292,19.224h33.679l-2.163-3.471a70.405,70.405,0,0,1-4.811-7.348l-.006-.009,0-.008a70.553,70.553,0,0,1-5-10.854Zm30.307,0h0a70.535,70.535,0,0,1-4.951,10.76l0,.005-.015.027-.011.021a70.43,70.43,0,0,1-4.846,7.406l-2.162,3.471h33.678c-.7-8.745-6.576-16.651-14.292-19.224l-7.4-2.466Zm-15.315,3.624h0l-6.268,6.63a66.989,66.989,0,0,0,3.96,5.917,1.5,1.5,0,0,1,.085.125l2.385,3.827c.93-1.492,1.5-2.405,1.849-2.969.568-.913.568-.913.614-.974l.007-.009a67.219,67.219,0,0,0,3.975-5.941l-6.607-6.605Zm9.929-10.5h0l-7.512,7.944,5.968,5.968a67.044,67.044,0,0,0,3.936-9.129l-2.392-4.783Zm-19.833.6h0l-2.094,4.188a67.308,67.308,0,0,0,3.936,9.126l5.575-5.9-7.417-7.418Zm6.4,1.431h0l3.432,3.432,3.107-3.285a17.631,17.631,0,0,1-6.539-.147Zm-8.407-10.2a13.923,13.923,0,0,0,15.526,6.641c5.281-1.322,9.639-6.26,10.6-12.009.1-.618.185-1.112.255-1.531.153-.917.246-1.471.357-2.217.5-3.371.86-7.087,1.033-10.747l-2.587-.37a31.872,31.872,0,0,1-17.321-8.4,12.293,12.293,0,0,0-9.149,4.9l-2.367,3.155c.213,5.256,1.2,14.039,2.11,17.06h5.126a5.282,5.282,0,0,1,4.974-3.516H990a5.274,5.274,0,0,1,0,10.548h-3.516a5.287,5.287,0,0,1-4.971-3.516Zm8.561-3.516a1.76,1.76,0,0,0,0,3.52H990a1.76,1.76,0,0,0,0-3.52Zm-15.827-3.516v1.758a1.76,1.76,0,0,0,1.758,1.758h.318c-.1-.427-.191-.855-.26-1.273l-.374-2.243Zm38.622-14.589,0,.077-.007.225c-.119,3.585-.418,7.311-.865,10.773h2.682a1.76,1.76,0,0,0,1.758-1.758v-9.316Zm-42.137,0v9.316a1.76,1.76,0,0,0,1.758,1.758h2.684c-.437-3.4-.732-7.031-.854-10.5,0,0,0-.008,0-.011s0-.007,0-.01l-.018-.553Zm19.337-10.547a1.774,1.774,0,0,1,1.244.514,28.244,28.244,0,0,0,15.879,7.94l2.2.314v-.016c.01-.46.014-.942.014-1.473a14.294,14.294,0,0,0-14.247-14.311h-3.147a14.224,14.224,0,0,0-14.17,12.816,15.9,15.9,0,0,1,12.228-5.784ZM990,3948.515a22.934,22.934,0,0,0-22.786,21.094h3.452a17.8,17.8,0,0,1,17.76-17.578h3.147a17.8,17.8,0,0,1,17.759,17.578h3.451A22.946,22.946,0,0,0,990,3948.515Z"/>
          </g>
        </g>
        <g id="Group_159" data-name="Group 159">
          <g id="Group_158" data-name="Group 158">
            <path id="Path_88" data-name="Path 88" class="cls-3" d="M1021.56,4024.37a17.568,17.568,0,0,0-4.976-6.041,1.758,1.758,0,1,0-2.143,2.787,14.044,14.044,0,0,1,3.974,4.825,1.758,1.758,0,1,0,3.145-1.571Z"/>
          </g>
        </g>
      </g>
    </g>
  </g>
</svg>
