<svg xmlns="http://www.w3.org/2000/svg" xmlns:xlink="http://www.w3.org/1999/xlink" width="90" height="90" viewBox="0 0 90 90">
  <defs>
    <style>
      .cls-1 {
        fill: none;
      }

      .cls-2 {
        clip-path: url(#clip-path);
      }

      .cls-3 {
        fill: #004cff;
      }
    </style>
    <clipPath id="clip-path">
      <path id="vectorMask" class="cls-1" d="M222.749,3945h90v90h-90Z"/>
    </clipPath>
  </defs>
  <g id="Mask_Group_25" data-name="Mask Group 25" class="cls-2" transform="translate(-222.749 -3945)">
    <g id="Mask_Group_25-2" data-name="Mask Group 25">
      <g id="truck">
        <g id="Group_123" data-name="Group 123">
          <g id="Group_122" data-name="Group 122">
            <path id="Path_70" data-name="Path 70" class="cls-3" d="M243.75,4022.25a9,9,0,1,1,9-9A9.01,9.01,0,0,1,243.75,4022.25Zm0-15a6,6,0,1,0,6,6A6.007,6.007,0,0,0,243.75,4007.25Z"/>
          </g>
        </g>
        <g id="Group_125" data-name="Group 125">
          <g id="Group_124" data-name="Group 124">
            <path id="Path_71" data-name="Path 71" class="cls-3" d="M294.75,4022.25a9,9,0,1,1,9-9A9.01,9.01,0,0,1,294.75,4022.25Zm0-15a6,6,0,1,0,6,6A6.007,6.007,0,0,0,294.75,4007.25Z"/>
          </g>
        </g>
        <g id="Group_127" data-name="Group 127">
          <g id="Group_126" data-name="Group 126">
            <path id="Path_72" data-name="Path 72" class="cls-3" d="M312.511,3995.938l-13.5-21a1.5,1.5,0,0,0-1.261-.688h-16.5a1.5,1.5,0,0,0-1.5,1.5v37.5a1.5,1.5,0,0,0,1.5,1.5h6v-3h-4.5v-34.5h14.181l12.818,19.94v14.559h-7.5v3h9a1.5,1.5,0,0,0,1.5-1.5v-16.5A1.5,1.5,0,0,0,312.511,3995.938Z"/>
          </g>
        </g>
        <g id="Group_129" data-name="Group 129">
          <g id="Group_128" data-name="Group 128">
            <path id="Path_73" data-name="Path 73" class="cls-3" d="M288.75,3993.75v-10.5h12v-3h-13.5a1.5,1.5,0,0,0-1.5,1.5v13.5a1.5,1.5,0,0,0,1.5,1.5h22.5v-3Z"/>
          </g>
        </g>
        <g id="Group_131" data-name="Group 131">
          <g id="Group_130" data-name="Group 130">
            <path id="Path_74" data-name="Path 74" class="cls-3" d="M281.25,3963.75h-57a1.5,1.5,0,0,0-1.5,1.5v48a1.5,1.5,0,0,0,1.5,1.5h12v-3h-10.5v-45h54v45h-28.5v3h30a1.5,1.5,0,0,0,1.5-1.5v-48A1.5,1.5,0,0,0,281.25,3963.75Z"/>
          </g>
        </g>
        <g id="Group_133" data-name="Group 133">
          <g id="Group_132" data-name="Group 132">
            <rect id="Rectangle_111" data-name="Rectangle 111" class="cls-3" width="9" height="3" transform="translate(224.25 4005.75)"/>
          </g>
        </g>
        <g id="Group_135" data-name="Group 135">
          <g id="Group_134" data-name="Group 134">
            <rect id="Rectangle_112" data-name="Rectangle 112" class="cls-3" width="25.5" height="3" transform="translate(254.25 4005.75)"/>
          </g>
        </g>
        <g id="Group_137" data-name="Group 137">
          <g id="Group_136" data-name="Group 136">
            <rect id="Rectangle_113" data-name="Rectangle 113" class="cls-3" width="6" height="3" transform="translate(305.25 4005.75)"/>
          </g>
        </g>
        <g id="Group_139" data-name="Group 139">
          <g id="Group_138" data-name="Group 138">
            <rect id="Rectangle_114" data-name="Rectangle 114" class="cls-3" width="52.5" height="3" transform="translate(228.75 3969.75)"/>
          </g>
        </g>
        <g id="Group_141" data-name="Group 141">
          <g id="Group_140" data-name="Group 140">
            <rect id="Rectangle_115" data-name="Rectangle 115" class="cls-3" width="3" height="3" transform="translate(242.25 4011.75)"/>
          </g>
        </g>
        <g id="Group_143" data-name="Group 143">
          <g id="Group_142" data-name="Group 142">
            <rect id="Rectangle_116" data-name="Rectangle 116" class="cls-3" width="3" height="3" transform="translate(293.25 4011.75)"/>
          </g>
        </g>
        <g id="Group_145" data-name="Group 145">
          <g id="Group_144" data-name="Group 144">
            <rect id="Rectangle_117" data-name="Rectangle 117" class="cls-3" width="21" height="3" transform="translate(228.75 3957.75)"/>
          </g>
        </g>
        <g id="Group_147" data-name="Group 147">
          <g id="Group_146" data-name="Group 146">
            <rect id="Rectangle_118" data-name="Rectangle 118" class="cls-3" width="3" height="3" transform="translate(222.75 3957.75)"/>
          </g>
        </g>
      </g>
    </g>
  </g>
</svg>
