<svg xmlns="http://www.w3.org/2000/svg" xmlns:xlink="http://www.w3.org/1999/xlink" width="67.5" height="40.5" viewBox="0 0 67.5 40.5">
  <defs>
    <style>
      .cls-1 {
        fill: none;
      }

      .cls-2 {
        fill: #f8f8f8;
      }

      .cls-3 {
        clip-path: url(#clip-path);
      }

      .cls-4 {
        fill: #ff6c6c;
      }

      .cls-5 {
        fill: #ee3b3f;
      }

      .cls-6 {
        fill: #1992dd;
      }

      .cls-7 {
        fill: #0468b2;
      }

      .cls-8 {
        fill: #ffce00;
      }

      .cls-9 {
        fill: #f7ab1b;
      }

      .cls-10 {
        fill: #85dd52;
      }

      .cls-11 {
        fill: #6bb745;
      }

      .cls-12 {
        fill: #c60c1e;
      }

      .cls-13 {
        fill: #064c91;
      }

      .cls-14 {
        fill: #f48d1c;
      }

      .cls-15 {
        fill: #4a9e19;
      }
    </style>
    <clipPath id="clip-path">
      <rect id="vectorMask" class="cls-1" width="44.26" height="26.56" transform="translate(1192.87 5068.72)"/>
    </clipPath>
  </defs>
  <g id="Group_366" data-name="Group 366" transform="translate(-1181.25 -5061.75)">
    <rect id="Rectangle_136" data-name="Rectangle 136" class="cls-2" width="67.5" height="40.5" transform="translate(1181.25 5061.75)"/>
    <g id="Mask_Group_34" data-name="Mask Group 34" class="cls-3">
      <g id="Mask_Group_34-2" data-name="Mask Group 34">
        <g id="ebay">
          <path id="Path_153" data-name="Path 153" class="cls-4" d="M1198.2,5087.19a5.327,5.327,0,0,1-4.05-1.456,4.912,4.912,0,0,1-1.21-3.314,5.171,5.171,0,0,1,1.229-3.69,5.464,5.464,0,0,1,4.171-1.5,4.892,4.892,0,0,1,4.316,1.895,5.317,5.317,0,0,1,.858,2.964,2.139,2.139,0,0,1-.053.612h-8.417a3.133,3.133,0,0,0,3.156,3.016l.15,0a2.5,2.5,0,0,0,2.656-1.546h2.174a2.892,2.892,0,0,1-.7,1.508C1201.888,5086.37,1200.665,5087.19,1198.2,5087.19Zm.072-8.558a2.919,2.919,0,0,0-3.157,2.666h6.173a2.951,2.951,0,0,0-.764-1.842A3,3,0,0,0,1198.273,5078.632Z"/>
          <path id="Path_154" data-name="Path 154" class="cls-5" d="M1198.2,5087.19a5.1,5.1,0,0,1-3.864-1.439,5.945,5.945,0,0,1-1.4-3.962l5.332-4.558h0a5.123,5.123,0,0,1,4.015,1.51,5.646,5.646,0,0,1,1.173,3.961h-8.417a3.132,3.132,0,0,0,3.156,3.016l.15,0a2.5,2.5,0,0,0,2.656-1.546h2.174a2.891,2.891,0,0,1-.7,1.508C1201.888,5086.37,1200.665,5087.19,1198.2,5087.19Zm.072-8.558a2.919,2.919,0,0,0-3.157,2.666h6.173a2.951,2.951,0,0,0-.764-1.842A3,3,0,0,0,1198.273,5078.632Z"/>
          <path id="Path_155" data-name="Path 155" class="cls-6" d="M1209.424,5087.19c-2.789,0-3.777-1.528-3.787-1.544l-.07,1.263h-2.034c.068-.692.069-2.16.069-2.174l-.069-11.152h2.385v5.26a4.32,4.32,0,0,1,3.648-1.542,4.821,4.821,0,0,1,4.979,4.979,4.9,4.9,0,0,1-1.535,3.639A5.3,5.3,0,0,1,1209.424,5087.19Zm-.395-8.418h-.1a3.219,3.219,0,0,0-2.382.94,3.94,3.94,0,0,0-.915,2.567c0,.035.037,3.508,3.2,3.508h.092a3.052,3.052,0,0,0,2.888-1.745,4.362,4.362,0,0,0,.412-1.692,4.258,4.258,0,0,0-1-2.743A2.949,2.949,0,0,0,1209.029,5078.772Z"/>
          <path id="Path_156" data-name="Path 156" class="cls-7" d="M1209.355,5087.19c-2.791,0-3.778-1.528-3.788-1.544l-.07,1.263h-2.034c.069-.692.07-2.16.07-2.174v-8.978l2.385-2.174v5.26a4.32,4.32,0,0,1,3.648-1.542,5.041,5.041,0,0,1,3.6,1.451,4.761,4.761,0,0,1,1.307,3.528,4.9,4.9,0,0,1-1.534,3.639A5.3,5.3,0,0,1,1209.355,5087.19Zm-.326-8.418h-.1a3.219,3.219,0,0,0-2.382.94,3.94,3.94,0,0,0-.915,2.567c0,.035.037,3.508,3.2,3.508h.1a3.05,3.05,0,0,0,2.884-1.745,4.362,4.362,0,0,0,.412-1.692,4.253,4.253,0,0,0-1-2.743A2.949,2.949,0,0,0,1209.029,5078.772Z"/>
          <path id="Path_157" data-name="Path 157" class="cls-8" d="M1218.261,5087.19a4.68,4.68,0,0,1-3.421-1.245,2.871,2.871,0,0,1-.577-2.4c.336-2.279,3.84-2.525,5.332-2.525.516,0,1.862-.048,2.416-.068h.039c0-1.423-.429-2.386-2.525-2.454-.057,0-.114,0-.168,0-2.131,0-2.286,1.321-2.287,1.334h-2.245c.466-2.658,4.368-2.734,4.811-2.734h.029c4.3.2,4.42,2.584,4.478,3.731,0,.072.007.136.011.2.045.589.032,1.318.017,2.163-.008.471-.017.957-.017,1.485,0,1.211.047,1.89.064,2.146,0,.05.006.086.006.1h-1.964l-.072-1.333A4.517,4.517,0,0,1,1218.261,5087.19Zm1.171-4.7a4.324,4.324,0,0,0-2.76.786,1.145,1.145,0,0,0-.3.9c.14,1.665,2.225,1.684,2.246,1.684h.116a2.878,2.878,0,0,0,3.256-3.363s0,0-.005,0H1219.6S1219.535,5082.488,1219.432,5082.488Z"/>
          <path id="Path_158" data-name="Path 158" class="cls-9" d="M1218.261,5087.26a4.681,4.681,0,0,1-3.421-1.244,2.871,2.871,0,0,1-.577-2.4c.336-2.279,3.84-2.525,5.332-2.525.516,0,1.861-.048,2.416-.069h.04c0-1.424-.429-2.387-2.525-2.454-.057,0-.112,0-.166,0-2.134,0-2.288,1.321-2.289,1.334h-2.034l4.7-2.665c1.834.084,3.106.583,3.78,1.483a3.794,3.794,0,0,1,.629,2.211v.008c0,.081.007.156.012.225.044.589.032,1.319.017,2.164-.008.471-.017.958-.017,1.483,0,1.448.068,2.168.069,2.174h-1.962l-.072-1.333A4.519,4.519,0,0,1,1218.261,5087.26Zm1.171-4.772a4.322,4.322,0,0,0-2.76.786,1.144,1.144,0,0,0-.3.9c.14,1.665,2.225,1.684,2.246,1.684h.115a2.878,2.878,0,0,0,3.257-3.363s0,0-.005,0H1219.6C1219.579,5082.49,1219.521,5082.488,1219.432,5082.488Z"/>
          <path id="Path_159" data-name="Path 159" class="cls-10" d="M1223.032,5077.791h2.455l3.577,7.154,3.578-7.154h2.244l-6.523,12.625h-2.385l1.894-3.507Z"/>
          <g id="Group_234" data-name="Group 234">
            <path id="Path_160" data-name="Path 160" class="cls-11" d="M1224.013,5079.615l1.473-1.824,3.577,7.084,3.578-7.084h2.244l-6.523,12.625h-2.385l1.894-3.578Z"/>
            <path id="Path_161" data-name="Path 161" class="cls-11" d="M1235.657,5078.142v-.28h-.071v-.07h.071v-.14h.14v.14h.141v.07h-.141v.28c0,.07,0,.07.07.07h.071v.07h-.141C1235.727,5078.353,1235.657,5078.282,1235.657,5078.142Z"/>
            <path id="Path_162" data-name="Path 162" class="cls-11" d="M1236.148,5077.791h.141v.07c.07-.07.07-.07.21-.07a.351.351,0,0,0,.422,0,.186.186,0,0,1,.211.21v.351h-.141v-.281a.14.14,0,0,0-.281,0v.281h-.14v-.281a.14.14,0,0,0-.281,0v.281h-.141v-.562Z"/>
          </g>
          <path id="Path_163" data-name="Path 163" class="cls-12" d="M1201.078,5080.176a2.794,2.794,0,0,1,.281,1.122h-6.243a2.645,2.645,0,0,1,1.4-2.244,5.71,5.71,0,0,0-3.508,1.964,5.83,5.83,0,0,0-.14,1.4s-.281,4.77,5.26,4.77c4.069,0,4.84-2.174,4.981-2.806v-.21h-2.175s-.42,1.614-2.805,1.543a3.1,3.1,0,0,1-3.086-3.016h7.786A8.228,8.228,0,0,0,1201.078,5080.176Z"/>
          <path id="Path_164" data-name="Path 164" class="cls-13" d="M1213.983,5084.525a5.825,5.825,0,0,0-2.384-4.349,4.243,4.243,0,0,1,.56,2.245s.071,3.437-3.3,3.437c-3.3.07-3.3-3.507-3.3-3.507s-.071-2.315,1.753-3.157a5.663,5.663,0,0,0-3.857,2.385v3.3s0,1.473-.07,2.174h2.034l.07-1.262s.983,1.542,3.788,1.542A5.206,5.206,0,0,0,1213.983,5084.525Z"/>
          <g id="Group_235" data-name="Group 235">
            <path id="Path_165" data-name="Path 165" class="cls-14" d="M1218.192,5087.26a4.684,4.684,0,0,1-3.422-1.244,2.871,2.871,0,0,1-.577-2.4c.336-2.279,3.84-2.525,5.332-2.525.516,0,1.861-.048,2.416-.069h.04a2.212,2.212,0,0,0-.351-1.542,5.708,5.708,0,0,1,2.525,2.1v3.085c0,.61.012,1.1.021,1.449a3.462,3.462,0,0,1-.021.866h-1.965l-.07-1.333A4.518,4.518,0,0,1,1218.192,5087.26Zm1.24-4.772a4.322,4.322,0,0,0-2.76.786,1.144,1.144,0,0,0-.3.9c.14,1.665,2.225,1.684,2.246,1.684h.115a2.878,2.878,0,0,0,3.257-3.363s0,0-.005,0H1219.6C1219.574,5082.49,1219.518,5082.488,1219.432,5082.488Z"/>
            <path id="Path_166" data-name="Path 166" class="cls-14" d="M1216.017,5079.9h1.123a2.2,2.2,0,0,1,.49-.771C1217,5079.264,1216.438,5079.9,1216.017,5079.9Z"/>
          </g>
          <path id="Path_167" data-name="Path 167" class="cls-15" d="M1228.363,5090.417l4.559-8.838a9.418,9.418,0,0,0-1.4-1.473l-2.455,4.7-2.805-5.4a5.667,5.667,0,0,0-1.684,1.192l3.3,6.313-1.894,3.507Z"/>
        </g>
      </g>
    </g>
  </g>
</svg>
