<svg xmlns="http://www.w3.org/2000/svg" xmlns:xlink="http://www.w3.org/1999/xlink" width="67.5" height="40.5" viewBox="0 0 67.5 40.5">
  <defs>
    <style>
      .cls-1 {
        fill: none;
      }

      .cls-2 {
        fill: #f8f8f8;
      }

      .cls-3 {
        clip-path: url(#clip-path);
      }

      .cls-4 {
        fill: #ffb600;
      }

      .cls-5 {
        fill: #f7981d;
      }

      .cls-6 {
        fill: #ff8500;
      }

      .cls-7 {
        fill: #ff5050;
      }

      .cls-8 {
        fill: #e52836;
      }

      .cls-9 {
        fill: #cb2026;
      }

      .cls-10 {
        fill: #fff;
      }

      .cls-11 {
        fill: #dce5e5;
      }
    </style>
    <clipPath id="clip-path">
      <rect id="vectorMask" class="cls-1" width="44.26" height="26.56" transform="translate(1102.87 5068.72)"/>
    </clipPath>
  </defs>
  <g id="Group_365" data-name="Group 365" transform="translate(-1091.25 -5061.75)">
    <rect id="Rectangle_134" data-name="Rectangle 134" class="cls-2" width="67.5" height="40.5" transform="translate(1091.25 5061.75)"/>
    <g id="Mask_Group_33" data-name="Mask Group 33" class="cls-3">
      <g id="Mask_Group_33-2" data-name="Mask Group 33">
        <g id="mastercard">
          <path id="Path_127" data-name="Path 127" class="cls-4" d="M1147.13,5082a13.279,13.279,0,0,1-26.557,0h0a13.279,13.279,0,0,1,26.557,0Z"/>
          <path id="Path_128" data-name="Path 128" class="cls-5" d="M1133.851,5068.721A13.313,13.313,0,0,1,1147.13,5082h0a13.279,13.279,0,0,1-26.557,0"/>
          <path id="Path_129" data-name="Path 129" class="cls-6" d="M1133.851,5068.721A13.313,13.313,0,0,1,1147.13,5082h0a13.268,13.268,0,0,1-13.279,13.278"/>
          <path id="Path_130" data-name="Path 130" class="cls-7" d="M1116.006,5068.721a13.279,13.279,0,0,0,.141,26.557,13.429,13.429,0,0,0,8.922-3.442h0a12.553,12.553,0,0,0,1.335-1.405h-2.74a16.034,16.034,0,0,1-.984-1.335h4.707a9.047,9.047,0,0,0,.772-1.4h-6.252a8.4,8.4,0,0,1-.562-1.405h7.307a13.948,13.948,0,0,0,.7-4.215,18.1,18.1,0,0,0-.281-2.81h-8.15a10.3,10.3,0,0,1,.352-1.405h7.307a8.406,8.406,0,0,0-.562-1.405h-6.182a13.928,13.928,0,0,1,.772-1.4h4.707a6.659,6.659,0,0,0-1.054-1.405h-2.6A12.024,12.024,0,0,1,1125,5072.3a12.962,12.962,0,0,0-8.922-3.442C1116.077,5068.721,1116.077,5068.721,1116.006,5068.721Z"/>
          <path id="Path_131" data-name="Path 131" class="cls-8" d="M1102.869,5082a13.268,13.268,0,0,0,13.279,13.278,13.429,13.429,0,0,0,8.922-3.442h0a12.553,12.553,0,0,0,1.335-1.405h-2.74a16.034,16.034,0,0,1-.984-1.335h4.707a9.047,9.047,0,0,0,.772-1.4h-6.252a8.4,8.4,0,0,1-.562-1.405h7.307a13.948,13.948,0,0,0,.7-4.215,18.1,18.1,0,0,0-.281-2.81h-8.15a10.3,10.3,0,0,1,.352-1.405h7.307a8.406,8.406,0,0,0-.562-1.405h-6.182a13.928,13.928,0,0,1,.772-1.4h4.707a6.659,6.659,0,0,0-1.054-1.405h-2.6A12.024,12.024,0,0,1,1125,5072.3a12.962,12.962,0,0,0-8.922-3.442h-.071"/>
          <path id="Path_132" data-name="Path 132" class="cls-9" d="M1116.147,5095.278a13.429,13.429,0,0,0,8.922-3.442h0a12.553,12.553,0,0,0,1.335-1.405h-2.74a16.034,16.034,0,0,1-.984-1.335h4.707a9.047,9.047,0,0,0,.772-1.4h-6.252a8.4,8.4,0,0,1-.562-1.405h7.307a13.948,13.948,0,0,0,.7-4.215,18.1,18.1,0,0,0-.281-2.81h-8.15a10.3,10.3,0,0,1,.352-1.405h7.307a8.406,8.406,0,0,0-.562-1.405h-6.182a13.928,13.928,0,0,1,.772-1.4h4.707a6.659,6.659,0,0,0-1.054-1.405h-2.6A12.024,12.024,0,0,1,1125,5072.3a12.962,12.962,0,0,0-8.922-3.442h-.071"/>
          <g id="Group_232" data-name="Group 232">
            <path id="Path_133" data-name="Path 133" class="cls-10" d="M1120.854,5085.372l.211-1.194a3.023,3.023,0,0,1-.352.07c-.491,0-.562-.281-.491-.421l.422-2.459h.773l.211-1.334h-.7l.141-.843h-1.405s-.843,4.637-.843,5.2a1.054,1.054,0,0,0,1.124,1.194A2.152,2.152,0,0,0,1120.854,5085.372Z"/>
            <path id="Path_134" data-name="Path 134" class="cls-10" d="M1123.805,5085.583a2.713,2.713,0,0,1-1.651-.491,2.349,2.349,0,0,1-.808-1.968c0-1.778,1.03-3.17,2.344-3.17.061,0,.124,0,.185.009a1.9,1.9,0,0,1,2.038,2.039,8.936,8.936,0,0,1-.211,1.263l-2.881,0a.926.926,0,0,0,.152.729,1.346,1.346,0,0,0,1.113.4,4.24,4.24,0,0,0,1.475-.353l-.282,1.335A3.8,3.8,0,0,1,1123.805,5085.583Zm0-4.5c-.8,0-.914.974-.914.984h1.546c0-.005,0-.016,0-.03a1.007,1.007,0,0,0-.177-.778A.592.592,0,0,0,1123.805,5081.086Z"/>
            <path id="Path_135" data-name="Path 135" class="cls-10" d="M1132.728,5085.372l.281-1.545a3.451,3.451,0,0,1-1.195.351c-.984,0-1.405-.772-1.405-1.616,0-1.686.844-2.6,1.827-2.6a2.347,2.347,0,0,1,1.266.422l.211-1.476a4.95,4.95,0,0,0-1.616-.351c-1.616,0-3.232,1.4-3.232,4.075,0,1.756.843,2.95,2.529,2.95A6.3,6.3,0,0,0,1132.728,5085.372Z"/>
            <path id="Path_136" data-name="Path 136" class="cls-10" d="M1111.791,5085.513c-.223,0-1.335-.075-1.335-1.545,0-1.957,1.935-2.108,2.528-2.108h.633s.07-.07.07-.351c0-.432-.439-.492-.914-.492a4.148,4.148,0,0,0-1.544.281l.21-1.195a5.035,5.035,0,0,1,1.686-.281c1.241,0,1.9.607,1.9,1.756l-.562,3.864H1113.2l.072-.562c-.016,0-.045.027-.093.071A1.922,1.922,0,0,1,1111.791,5085.513Zm1.335-2.6h0c-1.1,0-1.265.528-1.265.842a.547.547,0,0,0,.562.563c.817,0,.984-1.053.984-1.335A1.413,1.413,0,0,1,1113.126,5082.913Z"/>
            <path id="Path_137" data-name="Path 137" class="cls-10" d="M1116.358,5085.512a1.8,1.8,0,0,0,2.108-1.827c0-1.756-1.686-1.405-1.686-2.108,0-.351.281-.491.773-.491.211,0,.984.07.984.07l.211-1.265a5.358,5.358,0,0,0-1.335-.14c-1.054,0-2.108.421-2.108,1.826,0,1.616,1.756,1.476,1.756,2.108,0,.422-.491.492-.843.492a4.6,4.6,0,0,1-1.264-.21l-.211,1.265C1114.812,5085.372,1115.163,5085.512,1116.358,5085.512Z"/>
            <path id="Path_138" data-name="Path 138" class="cls-10" d="M1142.142,5085.583c-1.207,0-1.756-1.2-1.756-2.318,0-1.8,1.116-3.373,2.389-3.373a1.959,1.959,0,0,1,1.334.7l.282-1.9,1.475.07-1.054,6.745h-1.405l.07-.488,0,0A1.92,1.92,0,0,1,1142.142,5085.583Zm.844-4.355c-.663,0-1.126.751-1.126,1.827,0,.7.289,1.123.773,1.123.73,0,1.125-.9,1.125-1.756C1143.758,5081.618,1143.505,5081.228,1142.986,5081.228Z"/>
            <path id="Path_139" data-name="Path 139" class="cls-10" d="M1105.468,5085.442l.843-5.059.141,5.059h.983l1.827-5.059-.772,5.059h1.475l1.124-6.745h-2.318l-1.405,4.146-.07-4.146h-2.037l-1.125,6.745Z"/>
            <path id="Path_140" data-name="Path 140" class="cls-10" d="M1127.248,5085.442c.421-2.319.491-4.215,1.475-3.865a5.52,5.52,0,0,1,.492-1.616h-.282c-.632,0-1.124.843-1.124.843l.14-.772h-1.334l-.914,5.479h1.546Z"/>
            <path id="Path_141" data-name="Path 141" class="cls-10" d="M1134.624,5085.513c-.223,0-1.335-.075-1.335-1.545,0-1.957,1.936-2.108,2.53-2.108h.632s.07-.071.07-.351c0-.432-.439-.492-.913-.492a4.228,4.228,0,0,0-1.547.281l.212-1.195a5.034,5.034,0,0,1,1.686-.281,2,2,0,0,1,1.5.506,1.636,1.636,0,0,1,.393,1.25l-.562,3.864h-1.265l.07-.562c-.016,0-.044.027-.092.071A1.92,1.92,0,0,1,1134.624,5085.513Zm1.405-2.6h0c-1.1,0-1.265.528-1.265.842a.547.547,0,0,0,.562.563c.817,0,.984-1.053.984-1.335h0C1136.24,5082.983,1136.237,5082.982,1136.03,5082.913Z"/>
            <path id="Path_142" data-name="Path 142" class="cls-10" d="M1139.051,5085.442c.421-2.319.491-4.215,1.475-3.865a5.5,5.5,0,0,1,.491-1.616h-.281c-.632,0-1.125.843-1.125.843l.141-.772h-1.335l-.913,5.479h1.546Z"/>
          </g>
          <g id="Group_233" data-name="Group 233">
            <path id="Path_143" data-name="Path 143" class="cls-11" d="M1118.676,5084.389a1.055,1.055,0,0,0,1.125,1.194,2.665,2.665,0,0,0,1.054-.211l.211-1.194a3.023,3.023,0,0,1-.352.07c-.491,0-.562-.281-.491-.421l.422-2.459h.773l.211-1.334h-.7l.141-.843"/>
            <path id="Path_144" data-name="Path 144" class="cls-11" d="M1123.805,5085.583c-1.054,0-1.756-.418-1.756-2.459,0-2.133.538-3.17,1.645-3.17.059,0,.12,0,.182.009a1.9,1.9,0,0,1,2.038,2.039,8.928,8.928,0,0,1-.211,1.263l-2.881,0a.927.927,0,0,0,.152.729,1.346,1.346,0,0,0,1.113.4,4.24,4.24,0,0,0,1.475-.353l-.282,1.335A3.8,3.8,0,0,1,1123.805,5085.583Zm0-4.5c-.8,0-.914.974-.914.984h1.828a1.432,1.432,0,0,0-.316-.726A.783.783,0,0,0,1123.805,5081.086Z"/>
            <path id="Path_145" data-name="Path 145" class="cls-11" d="M1132.728,5085.372l.281-1.545a3.451,3.451,0,0,1-1.195.351c-.984,0-1.405-.772-1.405-1.616,0-1.686.844-2.6,1.827-2.6a2.347,2.347,0,0,1,1.266.422l.211-1.476a4.95,4.95,0,0,0-1.616-.351c-1.616,0-2.53,1.4-2.53,4.075,0,1.756.141,2.95,1.827,2.95A6.3,6.3,0,0,0,1132.728,5085.372Z"/>
            <path id="Path_146" data-name="Path 146" class="cls-11" d="M1111.791,5085.583c-.223,0-1.335-.075-1.335-1.546,0-1.955,1.935-2.107,2.528-2.107h.633s.07-.07.07-.353c0-.432-.439-.491-.914-.491a4.147,4.147,0,0,0-1.544.281l1.826-1.405h0c1.3,0,1.966.568,1.966,1.688l-.562,3.863H1113.2l.071-.562c-.016,0-.045.027-.092.071A1.924,1.924,0,0,1,1111.791,5085.583Zm1.335-2.669h0c-1.1,0-1.265.528-1.265.842a.546.546,0,0,0,.562.562,2.31,2.31,0,0,0,1.686-1.334h-.024A4.535,4.535,0,0,1,1113.126,5082.914Z"/>
            <path id="Path_147" data-name="Path 147" class="cls-11" d="M1114.812,5085.372a5.942,5.942,0,0,0,1.616.141,1.8,1.8,0,0,0,2.108-1.827c0-1.756-1.687-1.405-1.687-2.108,0-.351.282-.491.773-.491.211,0,.984.07.984.07l.211-1.265a5.349,5.349,0,0,0-1.335-.14c-1.054,0-1.4.421-1.4,1.826,0,1.616,1.054,1.476,1.054,2.108,0,.422-.493.492-.843.492"/>
            <path id="Path_148" data-name="Path 148" class="cls-11" d="M1142.142,5085.583a.96.96,0,0,1-.721-.253,2.532,2.532,0,0,1-.334-1.739v-.026c0-.1,0-.2,0-.3,0-1.539.292-3.373,1.686-3.373a1.96,1.96,0,0,1,1.334.7l1.758-1.827-1.054,6.745h-1.405l.07-.488,0,0A1.92,1.92,0,0,1,1142.142,5085.583Zm.844-4.355c-.663,0-1.126.751-1.126,1.827,0,.7.289,1.123.773,1.123.757,0,1.405-.966,1.405-1.756A1.077,1.077,0,0,0,1142.986,5081.228Z"/>
            <path id="Path_149" data-name="Path 149" class="cls-11" d="M1105.468,5085.442l.843-5.059.141,5.059h.983l1.827-5.059-.772,5.059h1.475l1.124-6.745h-1.756l-1.968,4.146-.07-4.146h-.773l-2.389,6.745Z"/>
            <path id="Path_150" data-name="Path 150" class="cls-11" d="M1125.772,5085.442h1.475c.421-2.319.491-4.215,1.475-3.865a5.52,5.52,0,0,1,.492-1.616h-.282c-.632,0-1.124.843-1.124.843l.14-.772"/>
            <path id="Path_151" data-name="Path 151" class="cls-11" d="M1134.625,5085.583c-.223,0-1.335-.075-1.335-1.546,0-1.955,1.936-2.107,2.53-2.107h.632s.07-.07.07-.353c0-.432-.439-.491-.913-.491a4.227,4.227,0,0,0-1.547.281l1.828-1.405h0c1.3,0,1.966.568,1.966,1.688l-.562,3.863h-1.265l.07-.562c-.016,0-.044.027-.092.071A1.923,1.923,0,0,1,1134.625,5085.583Zm1.334-2.669h0c-1.1,0-1.264.528-1.264.842a.546.546,0,0,0,.562.562,2.31,2.31,0,0,0,1.686-1.334h-.022A5.217,5.217,0,0,1,1135.958,5082.914Z"/>
            <path id="Path_152" data-name="Path 152" class="cls-11" d="M1137.575,5085.442h1.476c.421-2.319.491-4.215,1.475-3.865a5.5,5.5,0,0,1,.491-1.616h-.281c-.632,0-1.125.843-1.125.843l.141-.772"/>
          </g>
        </g>
      </g>
    </g>
  </g>
</svg>
