<svg xmlns="http://www.w3.org/2000/svg" xmlns:xlink="http://www.w3.org/1999/xlink" width="67.5" height="40.5" viewBox="0 0 67.5 40.5">
  <defs>
    <style>
      .cls-1 {
        fill: none;
      }

      .cls-2 {
        fill: #f8f8f8;
      }

      .cls-3 {
        clip-path: url(#clip-path);
      }

      .cls-4 {
        fill: #3c58bf;
      }

      .cls-5 {
        fill: #293688;
      }

      .cls-6 {
        fill: #ffbc00;
      }

      .cls-7 {
        fill: #f7981d;
      }

      .cls-8 {
        fill: #ed7c00;
      }

      .cls-9 {
        fill: #051244;
      }
    </style>
    <clipPath id="clip-path">
      <rect id="vectorMask" class="cls-1" width="44.26" height="26.56" transform="translate(1012.87 5068.72)"/>
    </clipPath>
  </defs>
  <g id="Group_364" data-name="Group 364" transform="translate(-1001.25 -5061.75)">
    <rect id="Rectangle_133" data-name="Rectangle 133" class="cls-2" width="67.5" height="40.5" transform="translate(1001.25 5061.75)"/>
    <g id="Mask_Group_32" data-name="Mask Group 32" class="cls-3">
      <g id="Mask_Group_32-2" data-name="Mask Group 32">
        <g id="visa">
          <path id="Path_112" data-name="Path 112" class="cls-4" d="M1029.1,5088.358l2.248-12.646h3.513l-2.178,12.646Z"/>
          <path id="Path_113" data-name="Path 113" class="cls-5" d="M1029.1,5088.358l2.88-12.646h2.88l-2.178,12.646Z"/>
          <path id="Path_114" data-name="Path 114" class="cls-4" d="M1045.4,5075.853a8.9,8.9,0,0,0-3.231-.562c-3.514,0-6.043,1.756-6.043,4.285,0,1.9,1.757,2.881,3.161,3.513s1.827,1.054,1.827,1.616c0,.843-1.124,1.265-2.108,1.265a7.634,7.634,0,0,1-3.372-.7l-.492-.21-.491,2.88a11.39,11.39,0,0,0,4,.7c3.724,0,6.183-1.756,6.183-4.426,0-1.476-.914-2.6-3.021-3.513-1.264-.632-2.037-.984-2.037-1.616,0-.562.632-1.125,2.037-1.125a6.439,6.439,0,0,1,2.67.492l.352.14.561-2.74Z"/>
          <path id="Path_115" data-name="Path 115" class="cls-5" d="M1045.4,5075.853a8.9,8.9,0,0,0-3.231-.562c-3.514,0-5.41,1.756-5.41,4.285a3.674,3.674,0,0,0,2.529,3.513c1.405.632,1.827,1.054,1.827,1.616,0,.843-1.124,1.265-2.108,1.265a7.634,7.634,0,0,1-3.372-.7l-.492-.21-.491,2.88a11.39,11.39,0,0,0,4,.7c3.724,0,6.183-1.756,6.183-4.426,0-1.476-.914-2.6-3.021-3.513-1.264-.632-2.037-.984-2.037-1.616,0-.562.632-1.125,2.037-1.125a6.439,6.439,0,0,1,2.67.492l.352.14.561-2.74Z"/>
          <path id="Path_116" data-name="Path 116" class="cls-4" d="M1048.138,5088.359h-3.794l5.269-11.733c.353-.848.98-.913,1.827-.913h2.739l2.95,12.646h-3.371l-.421-2.108h-4.5l-.7,2.108Zm3.583-9.2h0c-.208.483-.489,1.257-.491,1.264l-.01.026c-.281.728-1.212,3.146-1.4,3.7v.07h2.951c-.14-.7-.838-3.837-.844-3.864l-.209-1.194Z"/>
          <path id="Path_117" data-name="Path 117" class="cls-5" d="M1048.138,5088.359h-3.794l6.112-11.733c.353-.848.98-.913,1.827-.913h1.9l2.95,12.646h-3.371l-.421-2.108h-4.5l-.7,2.108Zm3.583-9.2h0c-.208.483-.489,1.257-.491,1.264-.011.029-1.126,3.025-1.406,3.724v.07h2.951c-.14-.7-.838-3.837-.844-3.864l-.209-1.194Z"/>
          <path id="Path_118" data-name="Path 118" class="cls-4" d="M1022.634,5084.564l-.35-1.827a10.19,10.19,0,0,0-4.918-5.55l3.161,11.241h3.793l5.691-12.646h-3.793Z"/>
          <path id="Path_119" data-name="Path 119" class="cls-5" d="M1022.634,5084.564l-.35-1.827a10.19,10.19,0,0,0-4.918-5.55l3.161,11.241h3.793l5.691-12.646h-3.091Z"/>
          <path id="Path_120" data-name="Path 120" class="cls-6" d="M1012.869,5075.712l.632.141c4.5,1.054,7.588,3.723,8.782,6.885l-1.266-5.972c-.211-.843-.843-1.054-1.616-1.054Z"/>
          <path id="Path_121" data-name="Path 121" class="cls-7" d="M1012.869,5075.712h0c4.5,1.054,8.22,3.794,9.414,6.956l-1.195-4.989a1.716,1.716,0,0,0-1.687-1.334Z"/>
          <path id="Path_122" data-name="Path 122" class="cls-8" d="M1012.869,5075.712h0c4.5,1.054,8.22,3.794,9.414,6.956l-.844-2.74a2.476,2.476,0,0,0-1.475-2.037Z"/>
          <g id="Group_231" data-name="Group 231">
            <path id="Path_123" data-name="Path 123" class="cls-9" d="M1026.147,5084.143l-2.388-2.389-1.125,2.67-.281-1.756a10.18,10.18,0,0,0-4.918-5.55l3.161,11.241h3.794Z"/>
            <path id="Path_124" data-name="Path 124" class="cls-9" d="M1032.681,5088.358l-3.02-3.091-.562,3.091Z"/>
            <path id="Path_125" data-name="Path 125" class="cls-9" d="M1040.761,5084h0c.281.281.422.492.351.773,0,.843-1.124,1.265-2.108,1.265a7.634,7.634,0,0,1-3.372-.7l-.492-.21-.491,2.88a11.391,11.391,0,0,0,4,.7,6.954,6.954,0,0,0,5.129-1.756Z"/>
            <path id="Path_126" data-name="Path 126" class="cls-9" d="M1044.836,5088.358h3.3l.7-2.107h4.5l.421,2.107h3.372l-1.194-5.128-4.216-4.075.211,1.124s.7,3.162.843,3.864h-2.95c.281-.7,1.405-3.724,1.405-3.724s.281-.772.492-1.265"/>
          </g>
        </g>
      </g>
    </g>
  </g>
</svg>
