<svg xmlns="http://www.w3.org/2000/svg" width="247.497" height="128.411" viewBox="0 0 247.497 128.411">
  <defs>
    <style>
      .cls-1 {
        fill: #004cff;
      }

      .cls-2 {
        fill: #fff;
      }
    </style>
  </defs>
  <g id="Group_368" data-name="Group 368" transform="translate(-1001.25 -4770.914)">
    <path id="Path_185" data-name="Path 185" class="cls-1" d="M1213.278,4882.2c-1.316,0-2.643-.057-3.944-.169,10.618-1.911,24.123-7.578,28.169-23.73,3.094-12.347-3.667-23.129-10.207-33.557l0-.007c-5.106-8.143-9.927-15.834-9.456-23.555.311-5.11,1.7-8.718,4.135-10.726a10.066,10.066,0,0,1,6.6-2.086,15.275,15.275,0,0,1,5.02.863,11.656,11.656,0,0,1,4.053,2.346c.489-1.7,1.923-2.922,4.263-3.637a17.8,17.8,0,0,1,4.937-.665c.4,0,.628.012.67.015a10.855,10.855,0,0,0-3.577,5.774c-.735,3.541-.007,14.407,0,14.516h-.018c-.167.013-.351.02-.562.02-1.331,0-4.577-.291-5.982-2.987a25.717,25.717,0,0,1-1.7-4.993l0-.007c-.7-2.626-1.37-5.106-2.777-6.394a3.808,3.808,0,0,0-2.535-1.065,2.958,2.958,0,0,0-2.169.954c-.792.824-1.706,2.568-1.561,6.2.219,5.5,4.331,12.14,9.093,19.826,3.779,6.1,7.686,12.407,10.264,19.1,2.946,7.653,3.522,14.38,1.762,20.566a30.18,30.18,0,0,1-13.311,17.708,36.621,36.621,0,0,1-10.078,4.289A43.578,43.578,0,0,1,1213.278,4882.2Zm-176.675-1.3a28.631,28.631,0,0,1-7.227-1.02,12.757,12.757,0,0,1-4.681-2.326,6.171,6.171,0,0,1-2.3-4.47,11.43,11.43,0,0,1-4.184,3.987,20.618,20.618,0,0,1-5.319,2.084,31.444,31.444,0,0,1-7.168.93h-.062a12.537,12.537,0,0,0,4.84-3.646c2.273-2.613,5.108-7.531,5.7-16.122q.042-.608.085-1.215.033-.472.066-.942v-.033c1.116-15.723,2.171-30.575-10.7-41.291h.016a26.564,26.564,0,0,0,3.887.269,22.988,22.988,0,0,0,11.416-2.745c1.9-1.113,3.276-1.969,4.278-2.593l.008-.005.022-.013.038-.023,0,0c2.666-1.664,3.383-2.111,5.863-2.466a5.607,5.607,0,0,1,.8-.06,5.284,5.284,0,0,1,4.3,2.367,2.52,2.52,0,0,0-.451-.033c-1.726,0-7.413,1.143-8.114,15.845-.083,1.761-.172,3.761-.281,6.293v.01l-.023.538v.045l0,.087v.032c-.425,9.828-.864,19.99-2,27.736,2.479-5.7,5.986-11.969,9.08-17.5l0,0,0-.008.036-.063,0-.007.1-.179.01-.018.06-.106c1.58-2.825,2.944-5.264,3.962-7.267,4.958-9.766,3.492-13.615,2.925-14.562a7.321,7.321,0,0,0-1.566-1.714l-.005,0-.012-.011c-.619-.537-1.108-.96-.928-1.437.26-.694,16.3-4.565,21.8-5.821l-.005,0a21.1,21.1,0,0,0-4.845,5.582c-2.233,3.554-4.934,9.7-5.118,18.8-.26,12.815,6.068,19.22,9.862,21.9-1.216-10.817.34-22.792,4.5-34.632a95.579,95.579,0,0,1,7.592-16.42,88.341,88.341,0,0,1,10.379-14.355,65.826,65.826,0,0,1,17.837-14.385,43.288,43.288,0,0,1,20.516-5.44,41.092,41.092,0,0,1,21.434,6.266,33.228,33.228,0,0,1,7.761,6.376,26.12,26.12,0,0,1,4.536,7.14,21.035,21.035,0,0,1,1.125,13.7,13.463,13.463,0,0,1-3.564,6.224,8.422,8.422,0,0,1-5.831,2.41,9.2,9.2,0,0,1-2.92-.493,17.779,17.779,0,0,1-4.65-2.278l-2.375,16.283,9.651-5.962a17.667,17.667,0,0,0,.479,10.763,14.8,14.8,0,0,0-6.525-1.587,10.066,10.066,0,0,0-4.2.847l-2.572,17.62c1.165,1.729,2.893,3.85,4.508,4.133a3.957,3.957,0,0,0,.682.063c2.721,0,4.183-3.381,6.1-8.539l.061-.166.085-.23.063-.171.016-.043.018-.049.08-.216.124-.333.032-.084c1.933-5.23,2.9-7.855,4.759-8.57a12.033,12.033,0,0,1,4-.571c.634,0,1.078.031,1.086.033-.036.072-3.7,7.667-3.7,13.174,0,5.455,1.007,7.3,1.05,7.379-.006,0-.053.008-.147.016-2.051.2-7.355.712-12.309,1.083-6.119.458-20.816,3.133-20.957,3.159,0-.006.036-.079.1-.206l.028-.056c.642-1.273,1.557-3.078,2.8-5.518.282-.556.6-1.186,1.046-2.044l6.264-42.61a10.9,10.9,0,0,0-.457-2.5c-.662-1.575-3.218-2.314-3.243-2.322l0-.007.012-.032,0-.006a18.576,18.576,0,0,0,.842-2.372l3.991-.57.02-.129,10.309-1.521-1.479,10.137a11.7,11.7,0,0,0,8.881-10.026,17.558,17.558,0,0,0-8.344-17.179,29.763,29.763,0,0,0-15.86-4.644c-11.906,0-24.843,7.461-35.495,20.471-15.6,19.064-22.995,44.73-18.832,65.389a17.71,17.71,0,0,0,1.115,3.21,40.507,40.507,0,0,0,2.672,4.626,21.112,21.112,0,0,1-4.684.526,23.048,23.048,0,0,1-10.6-2.671,30.6,30.6,0,0,1-8.721-6.856,32.554,32.554,0,0,1-6.13-10.055,23.137,23.137,0,0,1-1.519-10.705c-3.871,5.228-7.935,11.938-8.713,22.076-.491,6.374,1.12,9.941,2.558,11.812a7.262,7.262,0,0,0,3.27,2.561l-2.712.271Zm-14.957-44.883h0l-1.261,1.449,1.445,1.264,1.265-1.447Zm-5.278-13.648a19.74,19.74,0,0,1,3.409,5.832,27.15,27.15,0,0,1,1.564,6.6c0-.008,0-.037.011-.084.3-2.082,1.881-12.617,3-15.617-1.159,2.163-4.5,3.329-7.046,3.329A7.284,7.284,0,0,1,1016.367,4822.368Zm186.253,57.5h0a24.575,24.575,0,0,1-16.009-5.805,22.9,22.9,0,0,1-5.418-6.8,24.6,24.6,0,0,1-2.654-8.987,35.088,35.088,0,0,1,1.037-11.205c.794-3.191,2.337-7.653,5.178-10.794a9.453,9.453,0,0,1,7.137-3.456c.241,0,.479.009.709.027-2.042,2.2-4.011,6.586-5.4,12.026-1.332,5.2-1.857,10.306-1.405,13.646,1.45,10.688,9.715,17.868,20.566,17.868,6.87,0,13.663-3.01,19.128-8.474A32.044,32.044,0,0,1,1214.6,4877,26.615,26.615,0,0,1,1202.62,4879.865Zm-126.643-11.521h0l.322-1.565a5.748,5.748,0,0,0,4.23-3.377c.655-1.66,2.216-7.788,3.411-12.635l1.979-13.462c-6.456.836-10.223,5.251-10.075,11.812a15.1,15.1,0,0,1-1.806-7.876,11.61,11.61,0,0,1,1.8-5.761c2.12-3.146,5.771-4.879,10.28-4.879.255,0,.518.006.781.017l1.577-10.729a22.672,22.672,0,0,0-.653-4.785c-.66-1.572-3.216-2.314-3.242-2.322a20.416,20.416,0,0,0,.856-2.417l4.536-.648.006-.042,10.311-1.523-3.655,25.338a25.472,25.472,0,0,1,6.089,4.685,24.776,24.776,0,0,1,4.6,6.715l5.7-38.787,10.312-1.523L1115,4862.416l-10.452,1.383,1.758-11.957a18.757,18.757,0,0,0-2.039-6.1,17.4,17.4,0,0,0-8.386-6.984l-3.927,27.227-6.348.841-.007.038-9.616,1.478Zm78.34-10.716h0a59.739,59.739,0,0,0,2.609-6.208c.741-2.069,1.73-6.011,2.43-8.954l4.72-31.825a25.039,25.039,0,0,0-.717-5.76c-.66-1.57-3.216-2.313-3.242-2.321l.024-.06a16.735,16.735,0,0,0,.834-2.356l4.76-.681,0-.015,7.254-1.071.049-.129,20.523-2.4c.043.11-1.684,3.5-3.378,6.723-1.675,3.185-3.569,6.671-3.861,6.906a.736.736,0,0,1-.466.147c-.719,0-1.858-.758-2.9-2.884a11.586,11.586,0,0,1-.972-3.505l0-.011a5.422,5.422,0,0,0-1.022-2.927,2.6,2.6,0,0,0-4.048-.456,7.606,7.606,0,0,0-1.445,2.067l-4.2,29.083a8.7,8.7,0,0,1,7.664-4.679,12.523,12.523,0,0,1,4.547.947l-4,6.791a6.118,6.118,0,0,0-3.382-1.2c-3.3,0-5.164,3.8-5.981,6.064l-.062.386-.016.1,0,.03q-.031.19-.062.382c-.618,3.816-1.2,7.421.634,9.822,1.136,1.486,3.1,2.357,6,2.664l.036,0a.95.95,0,0,0,.153-.018l.02,0,.015,0h.008a1.2,1.2,0,0,1,.184-.02c.094,0,.138.03.138.1l0,2.423a206.778,206.778,0,0,0-22.834,2.853Zm32.863-3.361v0h0v0c.087-.174.91-1.812,2.926-5.773,1.208-2.374,2.338-4.545,3.073-5.949l5.913-40.232a8.459,8.459,0,0,0-.42-1.78,7.738,7.738,0,0,0-1.255-2.085c-.236-.312-.48-.635-.726-1l-.027-1.624c0,.01.038.015.1.015.324,0,1.417-.13,3.341-.4l.007-.051,10.312-1.523-.011.06c3.089-.52,4.871-.834,4.886-.865l.114,1.771a5.583,5.583,0,0,0-4.463,2.977,27.742,27.742,0,0,0-1.649,3.741l-6.464,44.3c1.217,1.483,2.326,2.321,3.3,2.491a3.977,3.977,0,0,0,.68.062c2.724,0,4.184-3.38,6.1-8.537q.226-.607.436-1.175l.043-.117c1.936-5.232,2.907-7.858,4.76-8.571a12.008,12.008,0,0,1,4-.572c.643,0,1.081.032,1.084.033-.036.074-3.7,7.626-3.7,13.175s1.04,7.361,1.05,7.378c-.006,0-.056.007-.148.016-2.024.2-7.275.706-12.307,1.083-5.844.438-19.417,2.879-20.945,3.156l-.012,0Z"/>
    <path id="Path_186" data-name="Path 186" class="cls-2" d="M1078.755,4892.6s1.116-4.552,3.347-13.656a.394.394,0,0,1,.363-.306q.858-.134,2.7-.371,2.415-.315,2.414-.317c.185-.026.259.038.222.191-.192.785-.346,1.385-.459,1.8-.025.105-.141.184-.344.234q-.838.114-2.293.333a.347.347,0,0,0-.284.277l-.759,3.1c-.043.176,0,.254.122.238q.4-.038,1.887-.294.26-.035.221.191a19.309,19.309,0,0,1-.564,2.3.252.252,0,0,1-.23.2q-.676.075-1.919.264a.359.359,0,0,0-.276.259q-.188.623-.618,2.45-.634,2.586-.662,2.693a.369.369,0,0,1-.316.281,13.234,13.234,0,0,1-2.371.344h-.028Q1078.7,4892.814,1078.755,4892.6Zm16.69-1.944a.109.109,0,0,1-.093-.042c-.052-.065-.05-.212,0-.438l3.318-13.533a.452.452,0,0,1,.415-.364c.78-.109,1.751-.249,2.81-.4a5.164,5.164,0,0,1,.689-.05,2.592,2.592,0,0,1,1.165.237.982.982,0,0,1,.549,1.23l-.867,3.466a3.281,3.281,0,0,1-.9,1.55,3.225,3.225,0,0,1-.985.713c-.11.05-.167.092-.176.126s.044.047.129.066a1.285,1.285,0,0,1,.635.338c.464.4.47,1.531.017,3.375a12.781,12.781,0,0,0-.44,2.523c0,.25-.093.392-.284.431-.238.056-.948.147-2.171.281h-.023a.1.1,0,0,1-.08-.036c-.05-.058-.059-.191-.025-.408.134-.784.322-1.672.559-2.645.309-1.26.341-2.058.1-2.371a.4.4,0,0,0-.336-.157.637.637,0,0,0-.092.007.5.5,0,0,0-.06,0,.374.374,0,0,0-.165.037c-.093.048-.17.184-.225.406-.481,1.966-.878,3.555-1.21,4.859-.074.3-.182.473-.319.5a11.883,11.883,0,0,1-1.925.3Zm5.679-12.565a1.962,1.962,0,0,1-.289.072c-.113.016-.192.122-.241.324l-.756,3.081c-.052.211-.05.354,0,.423a.138.138,0,0,0,.115.049h.036a.9.9,0,0,0,.205-.031.882.882,0,0,0,.653-.464,10.294,10.294,0,0,0,.818-2.459,1.086,1.086,0,0,0-.027-.88.393.393,0,0,0-.328-.136A.957.957,0,0,0,1101.124,4878.091Zm11.819,10.135a.121.121,0,0,1-.1-.043.327.327,0,0,1-.009-.263l3.369-13.746a.278.278,0,0,1,.254-.222c1.094-.161,2.737-.381,4.626-.619a.578.578,0,0,1,.09-.007.167.167,0,0,1,.141.049.14.14,0,0,1,.014.127l-.166.684-.065.265c-.157.586-.242.91-.276,1.05a.292.292,0,0,1-.257.25l-.968.132-.2.027-.959.131c-.183.027-.291.105-.322.232-.005.021-.023.09-.053.207q-.079.305-.273,1.045c-.173.656-.295,1.153-.361,1.479a.165.165,0,0,0,.013.143.187.187,0,0,0,.149.057,14.528,14.528,0,0,0,1.715-.22.379.379,0,0,1,.06,0,.152.152,0,0,1,.12.043.17.17,0,0,1,.023.139c-.044.223-.153.643-.308,1.181-.171.616-.295,1.061-.325,1.184a.316.316,0,0,1-.265.275l-1.674.23c-.125.018-.221.117-.287.293a24.809,24.809,0,0,0-.717,2.774.164.164,0,0,0,.02.144.272.272,0,0,0,.219.07h.033l1.1-.153.151-.021.792-.108a.5.5,0,0,1,.081-.006.175.175,0,0,1,.144.049.169.169,0,0,1,.016.146c-.215.878-.389,1.614-.5,2.125-.033.141-.152.232-.353.271a41.185,41.185,0,0,1-4.68.611Zm16.327-2.189c-.063,0-.1-.014-.119-.043s-.012-.077.017-.141l.389-.944.2-.474q.348-.849.7-1.7l.174-.43.193-.467.529-1.289.151-.369q.352-.858.706-1.719c1.954-4.724,3.029-7.138,3.2-7.174.674-.126,1.351-.22,2.008-.277a.017.017,0,0,1,.015.007c.124.135.007,2.413-.345,6.77-.23,2.7-.427,4.979-.623,7.163-.007.069-.071.112-.193.127l-.156.02-.238.034-.573.08c-.458.051-.858.1-1.224.151h-.006a.055.055,0,0,1-.039-.017,2.366,2.366,0,0,1-.1-1.068c.013-.51.04-.995.081-1.44a.08.08,0,0,0-.016-.066.131.131,0,0,0-.1-.033l-.042,0h-.014l-.727.1a.261.261,0,0,0-.2.147c-.27.695-.614,1.525-1.053,2.538-.075.117-.142.177-.205.187l-2.289.314a.553.553,0,0,1-.085,0Zm5.281-7.471c-.063.01-.206.3-.437.894l-.1.287-.06.165c-.087.233-.176.473-.263.711a.029.029,0,0,0,0,.026c.012.02.064.029.16.029a1.571,1.571,0,0,0,.359-.041c.129-.029.2-.066.209-.115a11.507,11.507,0,0,0,.145-1.954l0,0h0Zm13.07,4.8a.318.318,0,0,1-.009-.26l3.351-13.672c.041-.163.124-.255.246-.272.528-.083,1.2-.176,2.011-.276h.014a.121.121,0,0,1,.1.041.217.217,0,0,1,.012.182c-.589,2.15-.915,3.379-1,3.758-.012.058-.012.092,0,.105a.022.022,0,0,0,.021.01c.045-.017.088-.071.137-.172.4-.82,1.059-2.151,1.913-3.847.09-.174.192-.269.3-.284.286-.027.693-.083,1.209-.167l.748-.1.031,0,.093-.012c.059-.009.087-.011.093-.011a.311.311,0,0,1,.063,0,.147.147,0,0,1,.125.045.194.194,0,0,1,.013.167.477.477,0,0,1-.044.109c-.389.546-1.157,1.7-2.281,3.438-1.154,1.793-1.735,2.736-1.728,2.8.2,1.848.5,4.239.92,7.313.025.189-.032.3-.171.332l-.016,0-.061.007q-.367.05-2.482.341h-.023c-.083,0-.13-.07-.14-.217-.026-.49-.061-1.617-.112-3.656,0-.225-.022-.277-.038-.282s-.029.039-.11.3c-.257.852-.575,2.126-.946,3.787a.335.335,0,0,1-.27.292c-1.2.163-1.82.25-1.828.251a.247.247,0,0,1-.042,0A.124.124,0,0,1,1147.621,4883.366Zm18.467-3.366a2.786,2.786,0,0,1-.287-2.562c.043-.179.117-.454.243-.919.071-.247.171-.381.295-.4s.422-.068,1.06-.182.947-.165,1.058-.179h.018a.076.076,0,0,1,.068.031c.044.055.041.19-.011.4l-.211.863c-.128.52-.124.871.011,1.044a.367.367,0,0,0,.3.13.575.575,0,0,0,.1-.008c.382-.053.659-.371.825-.947l.278-.989c.083-.293-.13-.7-.635-1.224-.831-.859-1.314-1.374-1.4-1.488a2.183,2.183,0,0,1-.5-1.854l.366-1.495a5.719,5.719,0,0,1,1.426-2.665,4.779,4.779,0,0,1,2.755-1.415,3.5,3.5,0,0,1,.519-.043,1.633,1.633,0,0,1,1.4.627,2.543,2.543,0,0,1,.2,2.132l-.427,1.742a.371.371,0,0,1-.274.311c-.365.082-1.027.174-2.026.28a.37.37,0,0,1-.049,0,.149.149,0,0,1-.117-.044.237.237,0,0,1-.012-.193c.058-.277.19-.766.383-1.412a1.471,1.471,0,0,0,.039-.711c-.043-.2-.139-.306-.284-.306a.29.29,0,0,0-.047,0c-.481.067-.822.492-1.009,1.264l-.225.914c-.09.359.114.836.6,1.413.605.69,1.024,1.171,1.4,1.609a2.375,2.375,0,0,1,.483,1.923l-.3,1.214a5.189,5.189,0,0,1-1.438,2.562,4.523,4.523,0,0,1-2.582,1.222,3.328,3.328,0,0,1-.453.032A1.924,1.924,0,0,1,1166.088,4880Z"/>
    <path id="Path_187" data-name="Path 187" class="cls-2" d="M1072.287,4888.044l-1.22,2.9-69.817,8.383S1072.136,4887.738,1072.287,4888.044Zm1.221-4.727-1.221,2.9-69.819,8.383S1073.354,4883.013,1073.508,4883.318Zm.913-4.42-1.22,2.9-69.819,8.383S1074.269,4878.593,1074.422,4878.9Z"/>
    <path id="Path_188" data-name="Path 188" class="cls-2" d="M1017.732,4805.342a1.874,1.874,0,0,1-1.357-.514,1.469,1.469,0,0,1-.387-1.109l2.564-17.294h-.017a8.449,8.449,0,0,1-4.271-1.1,10.882,10.882,0,0,1-3.719-3.788l3.1-1.93a5.8,5.8,0,0,0,5.144,3c2.959,0,6.256-1.84,8.479-3.224,1.272-.792,2.379-1.548,3.591-2.384.239-.165.471-.322,1.09-.743a45.127,45.127,0,0,1,6.113-3.6,16.7,16.7,0,0,1,6.729-1.738l.259,0c5.863,0,8.627,3.822,9.914,7.028a8.735,8.735,0,0,0-3.051,2.279c-.66-2.115-2.432-5.664-6.9-5.664h-.163a13.22,13.22,0,0,0-5.257,1.409,41.609,41.609,0,0,0-5.6,3.3l-1.061.731c-1.066.734-2.392,1.648-3.733,2.482a29.8,29.8,0,0,1-6.862,3.324l-2.735,18.442A1.984,1.984,0,0,1,1017.732,4805.342Zm5.962-1.215h0l2.817-16.615c.611-1.573,1.476-1.808,1.936-1.808a1.658,1.658,0,0,1,1.286.673,2,2,0,0,1,.377,1.72l-1.621,8.386,5.679-7.714,1.755-2.219,1.3,2.52,2.973,5.789,4.211-14.227a2.036,2.036,0,0,1,1.782-1.354,1.8,1.8,0,0,1,1.408.717,1.876,1.876,0,0,1,.311,1.666l-4.272,14.433c-.111.375-.216.812-.328,1.274-.546,2.262-1.226,5.076-3.391,5.076l-4.643-9.2c-.872,1.1-1.629,2.17-2.361,3.2l-.011.015c-2.567,3.623-4.594,6.484-9.2,7.664Zm32.568-3.164a5.649,5.649,0,0,1-.745-.05,6.627,6.627,0,0,1-5.034-4.217,14,14,0,0,1-.924-7.543l.007-.058a14.009,14.009,0,0,1,2.905-6.974,6.931,6.931,0,0,1,5.225-2.768,5.622,5.622,0,0,1,.744.05,6.633,6.633,0,0,1,5.033,4.22,14.941,14.941,0,0,1-1.989,14.576A6.928,6.928,0,0,1,1056.262,4800.963Zm1.452-17.961a3.434,3.434,0,0,0-2.441,1.459,10.331,10.331,0,0,0-2.1,5.175l-.007.057a10.312,10.312,0,0,0,.646,5.5c.562,1.24,1.339,1.988,2.188,2.1a1.772,1.772,0,0,0,.24.016,3.432,3.432,0,0,0,2.442-1.461,11.3,11.3,0,0,0,1.463-10.732c-.563-1.242-1.34-1.989-2.189-2.1A1.855,1.855,0,0,0,1057.714,4783Z"/>
  </g>
</svg>
